<svg width="24" height="24" fill="none" viewBox="0 0 24 24">
  <radialGradient
    id="a"
    cx="1.464"
    cy="0.507"
    r="1.415"
    gradientTransform="matrix(1 0 0 .6667 0 .172)"
    gradientUnits="objectBoundingBox"
  >
    <stop offset="0%" stop-color="#fdf497" />
    <stop offset="45%" stop-color="#fdf497" />
    <stop offset="60%" stop-color="#fd5949" />
    <stop offset="90%" stop-color="#d6249f" />
    <stop offset="100%" stop-color="#285AEB" />
  </radialGradient>
  <rect width="24" height="24" rx="5" fill="url(#a)" />
  <path
    fill="#fff"
    d="M12 7.2A4.8 4.8 0 1 0 12 16.8 4.8 4.8 0 0 0 12 7.2zm0 7.8a3 3 0 1 1 0-6 3 3 0 0 1 0 6zm6.4-8.2a1.12 1.12 0 1 1-2.24 0 1.12 1.12 0 0 1 2.24 0zm3.2 1.12c-.07-1.49-.41-2.81-1.49-3.89C19.61 2.41 18.29 2.07 16.8 2c-1.49-.07-5.96-.07-7.45 0-1.49.07-2.81.41-3.89 1.49C2.41 4.39 2.07 5.71 2 7.2c-.07 1.49-.07 5.96 0 7.45.07 1.49.41 2.81 1.49 3.89 1.08 1.08 2.4 1.42 3.89 1.49 1.49.07 5.96.07 7.45 0 1.49-.07 2.81-.41 3.89-1.49 1.08-1.08 1.42-2.4 1.49-3.89.07-1.49.07-5.96 0-7.45zm-2.16 9.06a3.36 3.36 0 0 1-1.89 1.89c-1.31.52-4.42.4-5.35.4s-4.04.12-5.35-.4a3.36 3.36 0 0 1-1.89-1.89c-.52-1.31-.4-4.42-.4-5.35s-.12-4.04.4-5.35a3.36 3.36 0 0 1 1.89-1.89c1.31-.52 4.42-.4 5.35-.4s4.04-.12 5.35.4a3.36 3.36 0 0 1 1.89 1.89c.52 1.31.4 4.42.4 5.35s.12 4.04-.4 5.35z"
  />
</svg>
